<?xml version="1.0" encoding="utf-8"?>
<!-- Generator: Adobe Illustrator 26.0.1, SVG Export Plug-In . SVG Version: 6.00 Build 0)  -->
<svg version="1.1" id="Layer_1" xmlns="http://www.w3.org/2000/svg" xmlns:xlink="http://www.w3.org/1999/xlink" x="0px" y="0px"
	 viewBox="0 0 179.5 32.5" style="enable-background:new 0 0 179.5 32.5;" xml:space="preserve">
<g>
	<g>
		<path d="M17.3,8.6v6.7H24C23.5,11.8,20.8,9,17.3,8.6z"/>
		<path d="M24,17.2h-6.7v6.7C20.8,23.5,23.5,20.7,24,17.2z"/>
		<path d="M8.6,15.3h6.7V8.6C11.8,9,9.1,11.8,8.6,15.3z"/>
		<path d="M8.5,24.9v4.8c1.2,0.7,2.5,1.2,3.9,1.6V23c0.9,0.5,1.9,0.8,2.9,1v-6.7H8.5V24.9z"/>
		<path d="M27.9,15.3h3.9C31.3,7.5,25,1.3,17.3,0.8v3.9C22.9,5.1,27.4,9.6,27.9,15.3z"/>
		<path d="M0.8,15.3h3.9c0.5-5.6,5-10.1,10.6-10.6V0.8C7.6,1.3,1.3,7.5,0.8,15.3z"/>
		<path d="M4.7,26.5v-9.3H0.8C1.1,20.8,2.5,24,4.7,26.5z"/>
		<path d="M29.5,17.2L29.5,17.2l-1.6,0c-0.5,5.6-5,10.1-10.6,10.6v3.9c3.2-0.2,6.1-1.3,8.4-3.2c1.6,2.6,6.1,3.2,6.1,3.2V17.2H29.5z"
			/>
	</g>
	<g>
		<path d="M146.5,0.8c-0.8,0.4-3.7,1.5-4,5V10c0.3-3.5,3.2-4.6,4-5h0.1L146.5,0.8L146.5,0.8z"/>
		<path d="M174.2,7.3V0.8h-0.1c-0.8,0.4-3.7,1.5-4.1,5v1.5h-2v4.1h2v8.9c0.3,3.5,3.3,4.6,4.1,5h0.1V11.4h4.5
			C178.7,11.4,177.7,7.6,174.2,7.3z"/>
		<path d="M60.8,7.4L60.8,7.4L60.8,7.4c-2.6,0-4.9,1.2-6.4,3c-1.5-1.9-3.8-3-6.4-3l0,0l0,0c-4.6,0-8.4,3.9-8.4,8.6v1.2v0.9v2
			c0.2,3.6,3.2,4.7,4,5.1h0.1v-2v-3v-2.1v-0.9V16c0-2.6,2-4.7,4.4-4.7c2.4,0,4.4,2.1,4.4,4.7v4.2c0.2,3.6,3.2,4.7,4,5.1h0.1v-2v-3
			v-0.1c0,0,0,0,0,0V16c0-2.6,2-4.7,4.4-4.7c2.4,0,4.4,2.1,4.4,4.7v4.2c0.2,3.6,3.2,4.7,4,5.1h0.1v-9.3C69.2,11.2,65.5,7.4,60.8,7.4
			z"/>
		<path d="M80.2,7.4c-4.9,0-8.9,4-8.9,8.9c0,4.9,4,8.9,8.9,8.9c2,0,3.9-0.7,5.4-1.8c0.9,1.5,3.5,1.8,3.5,1.8v-1.4v-7.1v-0.4
			C89.2,11.4,85.2,7.4,80.2,7.4z M80.2,21.2c-2.7,0-5-2.2-5-5c0-2.7,2.2-5,5-5c2.7,0,5,2.2,5,5C85.2,19,83,21.2,80.2,21.2z"/>
		<path d="M107.8,7.4h-2.6c-1.5,0-2.9,0.7-3.7,1.8l-2,3.1h0l-2-3.1c-0.8-1.1-2.2-1.8-3.7-1.8h-2.5l5.7,8.9l-5.7,8.9h2.5
			c1.6,0,3-0.7,3.8-1.9l2-3.1v0l0,0l2,3.1c0.8,1.1,2.2,1.9,3.8,1.9h2.6l-5.7-8.9L107.8,7.4z"/>
		<path d="M133.6,9.9c-1.1-0.8-2.9-0.8-2.9-0.8v16.2h0.1c0.8-0.4,3.8-1.6,4.1-5.1v-1.5h0l0-2.2c0-2.7,2.3-4.9,5-4.9
			c0.1,0,0.3,0,0.4,0V7.4c-0.1,0-0.3,0-0.4,0C137.5,7.4,135.3,8.3,133.6,9.9z"/>
		<path d="M119,7.4c-4.9,0-8.9,4-8.9,8.9v3v6v1.4c0.3,3.5,3.2,4.6,4,5h0.1v-7.8c1.4,0.9,3.1,1.4,4.8,1.4c4.9,0,8.9-4,8.9-8.9
			C128,11.4,123.9,7.4,119,7.4z M119,21.3c-2.7,0-5-2.2-5-5c0-2.7,2.2-5,5-5c2.7,0,5,2.2,5,5C124,19.1,121.7,21.3,119,21.3z"/>
		<path d="M158.5,7.4L158.5,7.4L158.5,7.4c-2.3,0-4.4,0.9-5.9,2.5c0,0,0,0,0,0c-1.1-0.8-2.9-0.8-2.9-0.8v16.2h0.1
			c0.8-0.4,3.8-1.6,4.1-5.1v-1.5h0l0-0.5v-2.3c0-2.4,1.9-4.4,4.3-4.5c0.1,0,0.1,0,0.2,0c0.8,0,1.5,0.2,2.2,0.6
			c1.3,0.8,2.2,2.2,2.2,3.8V16v4.2c0.2,3.6,3.2,4.7,4,5.1h0.1v-9.3C166.9,11.2,163.1,7.4,158.5,7.4z"/>
		<path d="M146.5,8.8L146.5,8.8c-0.9,0.4-3.8,1.5-4.1,5v6.4c0.3,3.5,3.2,4.6,4,5h0.1V8.8z"/>
	</g>
</g>
</svg>
